2.8Hzlow_3min_grf.mot
version=1
nRows=17
nColumns 19
inDegrees=yes
endheader
time	1_ground_force_vx	1_ground_force_vy	1_ground_force_vz	1_ground_force_px	1_ground_force_py	1_ground_force_pz	1_ground_torque_x	1_ground_torque_y	1_ground_torque_z	2_ground_force_vx	2_ground_force_vy	2_ground_force_vz	2_ground_force_px	2_ground_force_py	2_ground_force_pz	2_ground_torque_x	2_ground_torque_y	2_ground_torque_z
            3.751500	           -0.813042	          341.531973	          -23.938478	           -0.249947	            0.006409	           -0.449528	           -0.004439	            1.864517	           -0.130687	           10.188082	          358.904206	           13.148537	           -0.256113	            0.005665	           -0.727417	            0.163155	            5.747615	            0.210565
            3.752000	           -0.764944	          336.662479	          -23.409191	           -0.250020	            0.006411	           -0.449872	           -0.004177	            1.838249	           -0.127819	           10.299542	          353.934008	           12.708403	           -0.256224	            0.005665	           -0.727399	            0.167493	            5.755729	            0.206666
            3.752500	           -0.900542	          331.072614	          -23.065964	           -0.249810	            0.006410	           -0.449602	           -0.004923	            1.809719	           -0.126084	           10.084525	          348.593234	           12.595592	           -0.255844	            0.005667	           -0.727546	            0.168287	            5.817213	            0.210191
            3.753000	           -0.899132	          325.844153	          -22.904956	           -0.249713	            0.006411	           -0.449762	           -0.005106	            1.850467	           -0.130077	           10.104217	          343.070777	           12.012743	           -0.255432	            0.005665	           -0.726817	            0.170496	            5.788884	            0.202700
            3.753500	           -0.851262	          320.974992	          -22.467381	           -0.249478	            0.006411	           -0.449965	           -0.004994	            1.883201	           -0.131819	           10.261923	          338.284448	           11.714031	           -0.255309	            0.005668	           -0.727455	            0.175898	            5.798487	            0.200789
            3.754000	           -0.436942	          316.466888	          -22.120881	           -0.249187	            0.006411	           -0.449956	           -0.002528	            1.830778	           -0.127970	           10.190115	          332.207557	           11.598532	           -0.255282	            0.005667	           -0.727202	            0.178154	            5.807996	            0.202778
            3.754500	           -0.160232	          311.778657	          -21.820670	           -0.249332	            0.006412	           -0.450067	           -0.000925	            1.799513	           -0.125944	           10.351062	          326.501133	           11.108822	           -0.255257	            0.005664	           -0.726309	            0.181584	            5.727664	            0.194877
            3.755000	           -0.387273	          306.729011	          -21.337329	           -0.249460	            0.006413	           -0.450335	           -0.002186	            1.731125	           -0.120424	            9.943850	          322.449838	           10.672193	           -0.254888	            0.005668	           -0.726896	            0.177180	            5.745412	            0.190157
            3.755500	           -0.660924	          302.761934	          -21.078516	           -0.249364	            0.006413	           -0.450255	           -0.003506	            1.606192	           -0.111824	           10.337299	          317.294673	           10.747492	           -0.254798	            0.005667	           -0.726725	            0.188238	            5.777817	            0.195708
            3.756000	           -0.384052	          298.433841	          -20.685046	           -0.248822	            0.006411	           -0.449878	           -0.002279	            1.771022	           -0.122753	           10.212495	          312.876280	           10.262502	           -0.254733	            0.005667	           -0.726595	            0.188166	            5.764757	            0.189087
            3.756500	           -0.520075	          293.925963	          -20.428894	           -0.248638	            0.006410	           -0.449636	           -0.003056	            1.726881	           -0.120024	           10.419065	          307.537530	           10.008727	           -0.254929	            0.005666	           -0.726492	            0.193104	            5.699802	            0.185499
            3.757000	           -0.427260	          290.860512	          -20.212982	           -0.248251	            0.006407	           -0.448812	           -0.002614	            1.779504	           -0.123664	           10.197862	          303.855695	            9.432548	           -0.254615	            0.005669	           -0.726871	            0.190576	            5.678421	            0.176274
            3.757500	           -0.379747	          285.451371	          -19.961149	           -0.248155	            0.006410	           -0.449483	           -0.002223	            1.671133	           -0.116860	           10.222309	          297.043417	            9.079740	           -0.254489	            0.005666	           -0.725980	            0.197308	            5.733451	            0.175255
            3.758000	           -0.240760	          280.583210	          -19.753081	           -0.248245	            0.006411	           -0.449875	           -0.001456	            1.696355	           -0.119424	           10.559480	          294.467179	            8.882689	           -0.254287	            0.005669	           -0.726802	            0.203866	            5.685118	            0.171493
            3.758500	           -0.284384	          277.155432	          -19.125671	           -0.248258	            0.006409	           -0.449408	           -0.001665	            1.622839	           -0.111987	           10.200488	          290.047437	            8.538583	           -0.254156	            0.005671	           -0.726997	            0.200714	            5.707235	            0.168013
            3.759000	           -0.191061	          271.926535	          -18.873179	           -0.247912	            0.006412	           -0.450063	           -0.001119	            1.592602	           -0.110535	           10.082474	          283.786404	            8.375518	           -0.253908	            0.005668	           -0.726029	            0.202422	            5.697469	            0.168152
            3.759500	           -0.143975	          268.860878	          -18.611297	           -0.247625	            0.006409	           -0.449240	           -0.000897	            1.675219	           -0.115963	           10.051410	          279.368014	            7.984344	           -0.254095	            0.005667	           -0.725933	            0.204359	            5.679943	            0.162333
